<?xml version="1.0" encoding="UTF-8" standalone="no"?>
<!-- Created with Inkscape (http://www.inkscape.org/) -->

<svg
   xmlns:dc="http://purl.org/dc/elements/1.1/"
   xmlns:cc="http://creativecommons.org/ns#"
   xmlns:rdf="http://www.w3.org/1999/02/22-rdf-syntax-ns#"
   xmlns:svg="http://www.w3.org/2000/svg"
   xmlns="http://www.w3.org/2000/svg"
   xmlns:sodipodi="http://sodipodi.sourceforge.net/DTD/sodipodi-0.dtd"
   xmlns:inkscape="http://www.inkscape.org/namespaces/inkscape"
   width="645.0625"
   height="637.09393"
   id="svg2"
   version="1.1"
   inkscape:version="0.48.3.1 r9886"
   sodipodi:docname="simon_board.svg">
  <defs
     id="defs4" />
  <sodipodi:namedview
     id="base"
     pagecolor="#ffffff"
     bordercolor="#666666"
     borderopacity="1.0"
     inkscape:pageopacity="0.0"
     inkscape:pageshadow="2"
     inkscape:zoom="0.98994949"
     inkscape:cx="336.93804"
     inkscape:cy="397.56062"
     inkscape:document-units="px"
     inkscape:current-layer="layer1"
     showgrid="false"
     showguides="true"
     inkscape:guide-bbox="true"
     inkscape:snap-grids="false"
     inkscape:window-width="1215"
     inkscape:window-height="1000"
     inkscape:window-x="65"
     inkscape:window-y="24"
     inkscape:window-maximized="1"
     fit-margin-top="10"
     fit-margin-bottom="10"
     fit-margin-right="10"
     fit-margin-left="10">
    <sodipodi:guide
       orientation="0,1"
       position="654.98748,674.18035"
       id="guide3025" />
    <sodipodi:guide
       orientation="0,1"
       position="19.516735,-0.21092765"
       id="guide3027" />
    <inkscape:grid
       type="xygrid"
       id="grid3031"
       empspacing="5"
       visible="true"
       enabled="true"
       snapvisiblegridlinesonly="true"
       originx="-38.06196px"
       originy="-203.25159px" />
    <sodipodi:guide
       orientation="0,1"
       position="350.84677,316.97697"
       id="guide3033" />
    <sodipodi:guide
       orientation="1,0"
       position="322.5625,328.08865"
       id="guide3035" />
  </sodipodi:namedview>
  <metadata
     id="metadata7">
    <rdf:RDF>
      <cc:Work
         rdf:about="">
        <dc:format>image/svg+xml</dc:format>
        <dc:type
           rdf:resource="http://purl.org/dc/dcmitype/StillImage" />
        <dc:title></dc:title>
      </cc:Work>
    </rdf:RDF>
  </metadata>
  <g
     inkscape:label="Layer 1"
     inkscape:groupmode="layer"
     id="layer1"
     transform="translate(-38.06196,-212.01667)">
    <path
       style="fill:#ff2a2a"
       d="m 48.06196,531.11059 230.40625,0 c 1.86659,-43.81445 37.88189,-78.78125 82.15625,-78.78125 0.16912,0 0.33112,0.0302 0.5,0.0312 l 0,-230.34375 c -0.16747,-2.6e-4 -0.33247,0 -0.5,0 -171.48354,0 -310.66087,138.06072 -312.5625,309.09375 z"
       id="path3023"
       inkscape:connector-curvature="0" />
    <path
       inkscape:connector-curvature="0"
       id="path3050"
       d="m 673.12446,531.11059 -230.40625,0 c -1.86659,-43.81445 -37.88189,-78.78125 -82.15625,-78.78125 -0.16912,0 -0.33112,0.0302 -0.5,0.0312 l 0,-230.34375 c 0.16747,-2.6e-4 0.33247,0 0.5,0 171.48354,0 310.66087,138.06072 312.5625,309.09375 z"
       style="fill:#000080" />
    <path
       inkscape:connector-curvature="0"
       id="path3052"
       d="m 48.06196,530.01667 230.40625,0 c 1.86659,43.81445 37.88189,78.78125 82.15625,78.78125 0.16912,0 0.33112,-0.0302 0.5,-0.0312 l 0,230.34375 c -0.16747,2.6e-4 -0.33247,0 -0.5,0 -171.48354,0 -310.66087,-138.06072 -312.5625,-309.09375 z"
       style="fill:#ffff00" />
    <path
       style="fill:#00ff00"
       d="m 673.12446,530.01667 -230.40625,0 c -1.86659,43.81445 -37.88189,78.78125 -82.15625,78.78125 -0.16912,0 -0.33112,-0.0302 -0.5,-0.0312 l 0,230.34375 c 0.16747,2.6e-4 0.33247,0 0.5,0 171.48354,0 310.66087,-138.06072 312.5625,-309.09375 z"
       id="path3054"
       inkscape:connector-curvature="0" />
  </g>
</svg>
